<?xml version="1.0" encoding="UTF-8" standalone="no"?>
<!-- Created with Inkscape (http://www.inkscape.org/) -->

<svg
   xmlns:dc="http://purl.org/dc/elements/1.1/"
   xmlns:cc="http://creativecommons.org/ns#"
   xmlns:rdf="http://www.w3.org/1999/02/22-rdf-syntax-ns#"
   xmlns:svg="http://www.w3.org/2000/svg"
   xmlns="http://www.w3.org/2000/svg"
   version="1.1"
   width="159.79871"
   height="92.625084"
   id="svg3888">
  <defs
     id="defs3890" />
  <metadata
     id="metadata3893">
    <rdf:RDF>
      <cc:Work
         rdf:about="">
        <dc:format>image/svg+xml</dc:format>
        <dc:type
           rdf:resource="http://purl.org/dc/dcmitype/StillImage" />
        <dc:title></dc:title>
      </cc:Work>
    </rdf:RDF>
  </metadata>
  <g
     transform="translate(-67.080699,-441.84366)"
     id="layer1">
    <g
       id="text3896"
       style="font-size:40px;font-style:normal;font-variant:normal;font-weight:300;font-stretch:normal;line-height:125%;letter-spacing:0px;word-spacing:0px;fill:#ffffff;fill-opacity:1;stroke:none;font-family:Rajdhani;-inkscape-font-specification:Rajdhani Light">
      <path
         d="m 112.65625,441.875 c -2.20805,9e-5 -3.8793,0.98409 -5.03125,3 l -40.03125,86.5625 c -0.960003,2.016 -0.571754,3 1.15625,3 l 13.8125,0 c 0.95998,0 1.676229,-0.1785 2.15625,-0.5625 0.575978,-0.48 1.053478,-1.2855 1.4375,-2.4375 l 7.1875,-15.84375 28.09375,0 0.875,15.84375 c -6e-5,1.152 0.14944,1.9575 0.4375,2.4375 0.28794,0.384 0.94394,0.5625 2,0.5625 l 1.53125,0 12.25,0 c 0.0109,0 0.0204,6e-5 0.0312,0 0.24059,0 0.48413,0.008 0.6875,-0.0312 1.54348,-0.2205 2.31247,-1.20475 2.3125,-2.96875 l 0,-22.85723 9.0625,-12.42402 22.03125,35.28125 c 1.15194,2.016 3.42119,3 6.78125,3 9.07113,-0.0243 14.7287,0.0312 23.81696,0.0312 7.48794,0 13.30944,-1.99925 17.4375,-6.03125 4.12793,-4.12799 6.1875,-9.94948 6.1875,-17.4375 l 0,-24.03125 c -7e-5,-2.20795 -1.10457,-3.31245 -3.3125,-3.3125 l -25.1875,0 c -2.01604,5e-5 -3.03129,0.98405 -3.03125,3 l 0,9.8125 c -4e-5,2.01604 1.01521,3.03129 3.03125,3.03125 l 8.625,0 c 1.05594,4e-5 1.59369,0.50654 1.59375,1.5625 l 0,9.09375 c -6e-5,3.07202 -0.62706,5.28102 -1.875,6.625 -1.24805,1.24802 -3.42805,1.84375 -6.5,1.84375 l -6.12946,0 c -2.97604,0 -9.34215,0.38977 -10.96875,-2.125 -0.0183,-0.0283 -0.0429,-0.0396 -0.0625,-0.0625 L 161.7187,483.03125 178.4062,459.9375 c 0.2149,-0.27041 2.17769,-2.21875 6.21875,-2.21875 6.7862,0 15.59821,0 15.59821,0 3.07195,8e-5 5.25195,0.68733 6.5,2.03125 1.24794,1.24807 1.87494,3.39682 1.875,6.46875 l 0,3.46875 c -6e-5,2.11206 0.98394,3.15631 3,3.15625 l 12.25,0 c 2.01593,6e-5 3.03118,-1.04419 3.03125,-3.15625 l 0,-4.34375 c 0,-7.48792 -2.05957,-13.21792 -6.1875,-17.25 -4.12806,-4.12791 -9.94956,-6.21866 -17.4375,-6.21875 -11.12353,0.0614 -18.37307,-0.0312 -29.44196,-0.0312 -2.49606,9e-5 -4.37706,1.01534 -5.625,3.03125 -2.9463,4.52586 -24.28251,37.73817 -26.3437,40.65239 l -0.28125,0 0,-40.65244 c -3e-5,-2.01591 -1.01528,-3.03116 -3.03125,-3.03125 -8.64826,-0.002 -17.23226,0.0312 -25.875,0.0312 z m 5.75,17.40625 0.59375,0 2.15625,41.625 -21.3125,0 z"
         id="path3915"
         style="font-size:144px;font-style:italic;font-weight:bold;fill:#ffffff;fill-opacity:1;stroke:none;-inkscape-font-specification:Rajdhani Bold Italic" />
    </g>
    <g
       id="text3900"
       style="font-size:40px;font-style:normal;font-variant:normal;font-weight:300;font-stretch:normal;line-height:125%;letter-spacing:0px;word-spacing:0px;fill:#000000;fill-opacity:1;stroke:none;font-family:Rajdhani;-inkscape-font-specification:Rajdhani Light" />
    <g
       id="text3904"
       style="font-size:40px;font-style:normal;font-variant:normal;font-weight:300;font-stretch:normal;line-height:125%;letter-spacing:0px;word-spacing:0px;fill:#000000;fill-opacity:1;stroke:none;font-family:Rajdhani;-inkscape-font-specification:Rajdhani Light" />
  </g>
</svg>
