<?xml version="1.0" encoding="UTF-8" standalone="no"?>
<svg
   xmlns:dc="http://purl.org/dc/elements/1.1/"
   xmlns:cc="http://creativecommons.org/ns#"
   xmlns:rdf="http://www.w3.org/1999/02/22-rdf-syntax-ns#"
   xmlns:svg="http://www.w3.org/2000/svg"
   xmlns="http://www.w3.org/2000/svg"
   xmlns:sodipodi="http://sodipodi.sourceforge.net/DTD/sodipodi-0.dtd"
   xmlns:inkscape="http://www.inkscape.org/namespaces/inkscape"
   height="32px"
   version="1.1"
   viewBox="0 0 32 32"
   width="32px"
   id="svg3389"
   inkscape:version="0.91 r13725"
   sodipodi:docname="1438872418_icon-16-medal-gold.svg">
  <metadata
     id="metadata3402">
    <rdf:RDF>
      <cc:Work
         rdf:about="">
        <dc:format>image/svg+xml</dc:format>
        <dc:type
           rdf:resource="http://purl.org/dc/dcmitype/StillImage" />
        <dc:title></dc:title>
      </cc:Work>
    </rdf:RDF>
  </metadata>
  <sodipodi:namedview
     pagecolor="#ffffff"
     bordercolor="#666666"
     borderopacity="1"
     objecttolerance="10"
     gridtolerance="10"
     guidetolerance="10"
     inkscape:pageopacity="0"
     inkscape:pageshadow="2"
     inkscape:window-width="1920"
     inkscape:window-height="1104"
     id="namedview3400"
     showgrid="false"
     inkscape:zoom="27.5625"
     inkscape:cx="16"
     inkscape:cy="16"
     inkscape:window-x="0"
     inkscape:window-y="27"
     inkscape:window-maximized="1"
     inkscape:current-layer="svg3389" />
  <desc
     id="desc3393" />
  <defs
     id="defs3395" />
  <g
     fill="none"
     fill-rule="evenodd"
     id="Page-1"
     stroke="none"
     stroke-width="1">
    <g
       fill="#929292"
       id="icon-16-medal">
      <path
         d="M19,1 L14,1 L14,15.3735982 C14.790422,15.1307224 15.6299451,15 16.5,15 C17.3700549,15 18.209578,15.1307224 19,15.3735982 L19,1 L19,1 Z M20,1 L24,1 L24,14 L22.7526743,17.7419772 C21.9830698,16.9066845 21.0482219,16.225982 20,15.7517392 L20,1 L20,1 Z M13,1 L9,1 L9,14 L10.2473257,17.7419772 L10.2473257,17.7419772 C11.0169302,16.9066845 11.9517781,16.225982 13,15.7517392 L13,1 L13,1 Z M16.5,31 C20.6421358,31 24,27.6421358 24,23.5 C24,19.3578642 20.6421358,16 16.5,16 C12.3578642,16 9,19.3578642 9,23.5 C9,27.6421358 12.3578642,31 16.5,31 L16.5,31 Z"
         id="medal" />
    </g>
  </g>
  <path
     style="fill:#cc9900;fill-opacity:1"
     d="m 15.926989,30.960788 c -2.609648,-0.183643 -4.9941,-1.807646 -6.15039,-4.188906 -0.5209535,-1.07285 -0.7451604,-2.053779 -0.745284,-3.260694 -1.493e-4,-1.458599 0.3672403,-2.755257 1.128371,-3.982453 1.399155,-2.255903 3.975826,-3.614815 6.639395,-3.501556 4.378446,0.186178 7.633046,4.007897 7.125796,8.367476 -0.262416,2.255343 -1.559247,4.27339 -3.529232,5.491973 -1.305429,0.807505 -2.879872,1.185964 -4.468656,1.07416 z"
     id="path3404"
     inkscape:connector-curvature="0" />
  <path
     style="fill:#cc9900;fill-opacity:1"
     d="m 9.6223002,15.837697 -0.6245678,-1.877877 0,-6.4647172 0,-6.4647173 1.9954646,0 1.995465,0 -1.45e-4,7.3560091 -1.45e-4,7.3560094 -0.412615,0.208875 c -0.707341,0.358072 -1.366483,0.833296 -1.982904,1.42962 l -0.345954,0.334675 -0.6245676,-1.877877 -3.12e-5,0 z"
     id="path3406"
     inkscape:connector-curvature="0" />
  <path
     style="fill:#cc9900;fill-opacity:1"
     d="m 14.004535,8.1924873 0,-7.1621018 2.485261,0 2.485261,0 0,7.1598578 0,7.1598577 -0.315162,-0.08416 c -0.760618,-0.203112 -1.159658,-0.248711 -2.170099,-0.247983 -1.013994,7.29e-4 -1.445209,0.05048 -2.172983,0.250714 l -0.312278,0.08592 0,-7.1621017 z"
     id="path3408"
     inkscape:connector-curvature="0" />
  <path
     style="fill:#cc9900;fill-opacity:1"
     d="m 22.385488,17.350549 c -0.608008,-0.574698 -1.419434,-1.14503 -2.113379,-1.485445 l -0.244898,-0.120134 0,-7.3572922 0,-7.3572923 1.977324,0 1.977324,0 0,6.4852571 0,6.4852574 -0.603173,1.814062 c -0.331746,0.997735 -0.613379,1.824708 -0.625851,1.837719 -0.01247,0.01301 -0.177778,-0.122949 -0.367347,-0.302132 z"
     id="path3410"
     inkscape:connector-curvature="0" />
</svg>
